<?xml version="1.0" encoding="UTF-8"?>
<svg xmlns="http://www.w3.org/2000/svg" viewBox="0 0 417.64 421.85">
  <defs>
    <style>
      .cls-1 {
        fill: #030b6b;
      }

      .cls-2, .cls-3 {
        fill: #fff;
      }

      .cls-4, .cls-5, .cls-6, .cls-7, .cls-8 {
        fill: #154ab5;
      }

      .cls-4, .cls-9, .cls-10 {
        opacity: .5;
      }

      .cls-11 {
        fill: #fafafa;
      }

      .cls-12 {
        letter-spacing: .19em;
      }

      .cls-13 {
        fill: #37474f;
      }

      .cls-3, .cls-14, .cls-15 {
        opacity: .4;
      }

      .cls-16 {
        fill: #f5f5f5;
      }

      .cls-17 {
        fill: #455a64;
      }

      .cls-18 {
        fill: #f28f8f;
      }

      .cls-19 {
        fill: #e0e0e0;
      }

      .cls-20 {
        fill: #e6e6e6;
      }

      .cls-5, .cls-21 {
        opacity: .2;
      }

      .cls-14 {
        fill: #1a2a44;
      }

      .cls-21 {
        fill: #0068ff;
      }

      .cls-7 {
        font-family: Montserrat-ExtraBold, 'Montserrat ExtraBold';
        font-size: 11.68px;
        font-weight: 700;
      }

      .cls-9 {
        fill: none;
      }

      .cls-8 {
        opacity: .3;
      }

      .cls-15 {
        fill: #262d38;
      }

      .cls-22 {
        fill: #ebebeb;
      }

      .cls-10, .cls-23 {
        fill: #3283f9;
      }

      .cls-24 {
        letter-spacing: .2em;
      }

      .cls-25 {
        fill: #ba68c8;
      }

      .cls-26 {
        letter-spacing: .2em;
      }

      .cls-27 {
        letter-spacing: .2em;
      }

      .cls-28 {
        fill: #263238;
      }

      .cls-29 {
        fill: #ffa8a7;
      }

      .cls-30 {
        fill: #fcfcfc;
      }
    </style>
  </defs>
  <g id="Floor">
    <ellipse class="cls-16" cx="208.82" cy="301.28" rx="208.82" ry="120.56"/>
  </g>
  <g id="Shadows">
    <ellipse class="cls-19" cx="241.59" cy="359.64" rx="45.16" ry="26.07"/>
    <path class="cls-19" d="m218.12,271.36l-120.79,69.75c-3.4,1.96-9.33,1.72-13.26-.55l-42.88-24.76c-3.92-2.27-4.35-5.69-.95-7.65l120.79-69.75c3.4-1.96,9.33-1.72,13.26.55l42.88,24.76c3.92,2.27,4.35,5.69.95,7.65Z"/>
  </g>
  <g id="Plants">
    <g>
      <g>
        <path class="cls-6" d="m348.19,295.72l9.51,5.53s-4.8-15.33-2.14-30.74c1.01-5.82,3.12-8.71,3.87-10.26.75-1.55,6.48-11.17,1.43-15.6-5.05-4.43-16.9,4.38-16.37,28.13.27,12.19,3.69,22.95,3.69,22.95Z"/>
        <path class="cls-4" d="m348.19,295.72l9.51,5.53s-4.8-15.33-2.14-30.74c1.01-5.82,3.12-8.71,3.87-10.26.75-1.55,6.48-11.17,1.43-15.6-5.05-4.43-16.9,4.38-16.37,28.13.27,12.19,3.69,22.95,3.69,22.95Z"/>
        <path class="cls-2" d="m352.61,298.72c-.18,0-.34-.11-.41-.28-.04-.1-3.63-10.09-3.44-26.11.19-16.12,8.66-24.72,8.75-24.8.17-.17.44-.17.61,0,.17.17.17.44,0,.61-.08.08-8.31,8.45-8.49,24.2-.19,15.85,3.36,25.71,3.39,25.81.08.22-.03.47-.26.55-.05.02-.1.03-.15.03Z"/>
      </g>
      <g>
        <path class="cls-6" d="m355.57,300.03l15.72,9.24s7.2-1.06,6.65-7.84c-.54-6.77-3.47-8.37.17-11.35,3.64-2.98,4.58-3.17,4.41-6.09-.17-2.92-2.14-4.19-3.06-5.35-.92-1.16-3.5-3.58-1.69-7.1,1.81-3.52,4.27-6.92.62-8.53-2.18-.96-5.83.24-8.26,2.82-2.43,2.57-4.43,4.43-6.72,5.02-2.3.6-7.09.65-6.93,4.6s1.19,5.33.23,7.08c-1.81,3.31-9.54,5.09-1.14,17.48Z"/>
        <path class="cls-5" d="m355.57,300.03l15.72,9.24s7.2-1.06,6.65-7.84c-.54-6.77-3.47-8.37.17-11.35,3.64-2.98,4.58-3.17,4.41-6.09-.17-2.92-2.14-4.19-3.06-5.35-.92-1.16-3.5-3.58-1.69-7.1,1.81-3.52,4.27-6.92.62-8.53-2.18-.96-5.83.24-8.26,2.82-2.43,2.57-4.43,4.43-6.72,5.02-2.3.6-7.09.65-6.93,4.6s1.19,5.33.23,7.08c-1.81,3.31-9.54,5.09-1.14,17.48Z"/>
        <path class="cls-2" d="m361.97,304.23c-.22,0-.41-.17-.43-.4-.02-.23-1.73-23.67,14.55-39.06.17-.16.45-.16.61.02.16.17.16.45-.02.61-15.98,15.1-14.31,38.13-14.29,38.37.02.24-.16.45-.4.47-.01,0-.02,0-.04,0Z"/>
        <path class="cls-2" d="m364.79,284.14c-.22,0-.41-.17-.43-.4-.46-6.15-4.73-9.31-4.78-9.34-.19-.14-.24-.41-.1-.6.14-.19.41-.24.6-.1.19.14,4.65,3.42,5.13,9.98.02.24-.16.44-.4.46-.01,0-.02,0-.03,0Z"/>
        <path class="cls-2" d="m363.63,288.14c-.1,0-.21-.04-.29-.11-.18-.16-.19-.43-.03-.61.17-.19,4.27-4.62,13.75-3.32.24.03.4.25.37.49-.03.24-.25.4-.49.37-8.99-1.23-12.95,3-12.99,3.04-.08.09-.2.14-.32.14Z"/>
      </g>
    </g>
    <g>
      <g>
        <path class="cls-6" d="m59.95,282.25l-4.7,9.95s-4.74-15.34-15.68-26.53c-4.13-4.22-7.51-5.4-9.01-6.26s-11.68-5.52-10.03-12.03c1.64-6.52,16.4-5.98,29.44,13.88,6.69,10.19,9.99,20.99,9.99,20.99Z"/>
        <path class="cls-4" d="m59.95,282.25l-4.7,9.95s-4.74-15.34-15.68-26.53c-4.13-4.22-7.51-5.4-9.01-6.26s-11.68-5.52-10.03-12.03c1.64-6.52,16.4-5.98,29.44,13.88,6.69,10.19,9.99,20.99,9.99,20.99Z"/>
        <path class="cls-30" d="m57.76,287.31c-.19,0-.37-.13-.42-.32-.03-.1-2.7-10.23-11.85-23.17-9.09-12.86-20.61-15.09-20.72-15.11-.23-.04-.39-.27-.35-.5.04-.23.26-.39.5-.35.12.02,11.97,2.29,21.27,15.46,9.25,13.09,11.95,23.36,11.98,23.46.06.23-.08.47-.31.53-.04,0-.07.01-.11.01Z"/>
      </g>
      <g>
        <path class="cls-6" d="m56.32,290l-7.7,16.53s-6.53,3.21-9.92-2.68c-3.4-5.89-1.89-8.86-6.58-9.25-4.69-.39-5.57-.01-7.08-2.52-1.51-2.5-.62-4.66-.51-6.14.1-1.48.85-4.93-2.64-6.8-3.49-1.87-7.44-3.28-5.35-6.67,1.24-2.03,4.94-3.11,8.4-2.37,3.46.74,6.16,1.13,8.39.32,2.23-.81,6.2-3.49,8.32-.14,2.11,3.35,2.04,5.06,3.83,5.96,3.37,1.7,10.74-1.22,10.86,13.75Z"/>
        <path class="cls-5" d="m56.32,290l-7.7,16.53s-6.53,3.21-9.92-2.68c-3.4-5.89-1.89-8.86-6.58-9.25-4.69-.39-5.57-.01-7.08-2.52-1.51-2.5-.62-4.66-.51-6.14.1-1.48.85-4.93-2.64-6.8-3.49-1.87-7.44-3.28-5.35-6.67,1.24-2.03,4.94-3.11,8.4-2.37,3.46.74,6.16,1.13,8.39.32,2.23-.81,6.2-3.49,8.32-.14,2.11,3.35,2.04,5.06,3.83,5.96,3.37,1.7,10.74-1.22,10.86,13.75Z"/>
        <path class="cls-2" d="m53.19,297.16c-.15,0-.29-.08-.37-.22-.12-.2-11.81-20.12-33.53-23.49-.24-.04-.4-.26-.36-.49.04-.24.26-.4.49-.36,22.14,3.43,34.03,23.7,34.15,23.91.12.21.05.47-.16.59-.07.04-.14.06-.21.06Z"/>
        <path class="cls-2" d="m39.47,282.22c-.15,0-.29-.08-.37-.21-3.32-5.68-1.51-10.91-1.44-11.13.08-.22.32-.34.55-.26.22.08.34.33.26.55-.02.05-1.75,5.08,1.37,10.4.12.21.05.47-.15.59-.07.04-.14.06-.22.06Z"/>
        <path class="cls-2" d="m29.88,289.82c-.12,0-.23-.05-.32-.14-.16-.18-.15-.45.03-.61,7.06-6.45,12.96-5.12,13.2-5.07.23.06.37.29.32.52-.05.23-.28.38-.52.32-.06-.01-5.72-1.25-12.42,4.86-.08.08-.19.11-.29.11Z"/>
      </g>
    </g>
  </g>
  <g id="Device">
    <g>
      <path class="cls-13" d="m56.43,80.82c0-5.93,3.16-11.41,8.3-14.37L170.25,5.52c3.12-1.8,6.9-.11,7.89,3.06-.57-2.47-2.11-4.64-4.34-5.97l-.38-.22c-2.63-1.56-5.62-2.39-8.68-2.39h0c-.93-.01-1.88.22-2.78.74L56.44,61.66c-5.13,2.96-8.3,8.44-8.3,14.37v228.19c0,4.18,4.53,6.8,8.15,4.71l.14-.08V80.82Z"/>
      <path class="cls-17" d="m170.1,252.79l-105.52,60.92c-3.62,2.09-8.15-.52-8.15-4.71V80.82c0-5.93,3.16-11.41,8.3-14.37L170.25,5.52c3.62-2.09,8.15.52,8.15,4.71v228.19c0,5.93-3.16,11.41-8.3,14.37Z"/>
      <path class="cls-28" d="m56.43,309.01V80.82c0-2.53.58-4.98,1.64-7.18l-8.16-5.05c-1.14,2.27-1.77,4.82-1.77,7.45v230.1c0,1.84.97,3.55,2.55,4.49l4.21,2.51c1.46.87,3.12,1.33,4.82,1.33h2.08c-2.81-.04-5.37-2.3-5.37-5.44Z"/>
      <g>
        <path class="cls-13" d="m166.47,27.46v191.8c0,5.24-2.79,10.07-7.33,12.69l-93.18,53.8c-.75.43-1.54.63-2.31.64,1.08,2.5,4.21,3.75,6.81,2.24l93.18-53.8c4.53-2.62,7.33-7.46,7.33-12.69V32.24c0-2.69-2.11-4.63-4.5-4.79Z"/>
        <path class="cls-25" d="m63.65,286.38c.77-.01,1.56-.21,2.31-.64l93.18-53.8c4.53-2.62,7.33-7.46,7.33-12.69V27.46c.44.03-1.4-.12-2.7.63l-93.18,53.8c-4.53,2.62-7.33,7.46-7.33,12.69v189.9c0,.7.15,1.35.4,1.94,0,0,0-.02-.01-.03Z"/>
        <g class="cls-9">
          <path class="cls-1" d="m63.65,286.38c.77-.01,1.56-.21,2.31-.64l93.18-53.8c4.53-2.62,7.33-7.46,7.33-12.69V27.46c.44.03-1.4-.12-2.7.63l-93.18,53.8c-4.53,2.62-7.33,7.46-7.33,12.69v189.9c0,.7.15,1.35.4,1.94,0,0,0-.02-.01-.03Z"/>
        </g>
      </g>
      <g>
        <path class="cls-28" d="m102.65,53.77c0,1.07-.75,2.37-1.68,2.91-.93.53-1.68.1-1.68-.97s.75-2.37,1.68-2.91,1.68-.1,1.68.97Z"/>
        <path class="cls-28" d="m108.89,50.17c0,1.07-.75,2.37-1.68,2.91-.93.53-1.68.1-1.68-.97s.75-2.37,1.68-2.91c.93-.53,1.68-.1,1.68.97Z"/>
        <path class="cls-28" d="m134.08,37.56l-20.3,11.72c-.8.46-1.45-.03-1.45-1.1h0c0-1.07.65-2.31,1.45-2.78l20.3-11.72c.8-.46,1.45.03,1.45,1.1h0c0,1.07-.65,2.31-1.45,2.78Z"/>
      </g>
      <path class="cls-28" d="m130.65,259.99h0c1.21,0,2,1.29,2,3.28,0,3.13-1.96,6.9-4.27,8.23l-9.71,5.6c-.52.3-1,.45-1.45.45-1.21,0-2-1.29-2-3.28,0-3.13,1.96-6.9,4.27-8.23l9.71-5.6c.52-.3,1-.45,1.45-.45m0-.83c-.57,0-1.2.18-1.86.56l-9.71,5.6c-2.59,1.49-4.69,5.5-4.69,8.95,0,2.57,1.16,4.1,2.83,4.1.57,0,1.2-.18,1.86-.56l9.71-5.6c2.59-1.49,4.69-5.5,4.69-8.95,0-2.57-1.16-4.1-2.83-4.1h0Z"/>
    </g>
  </g>
  <g id="Screen">
    <g>
      <g>
        <g>
          <g>
            <path class="cls-20" d="m77.01,108.02v214.99c0,3.89,1.43,6.51,3.62,7.37l.06.02h.01s9.29,5.1,9.29,5.1l-.05-8.27-1.03-222.93-9.81-5.02c-1.3,2.78-2.09,5.87-2.09,8.74Z"/>
            <path class="cls-20" d="m90.49,336.34l-10.06-5.51c-2.49-1.03-3.93-3.94-3.93-7.83V108.02c0-2.83.76-6.01,2.13-8.95l.22-.47,10.54,5.39v.3s1.03,222.93,1.03,222.93l.06,9.12Zm-9.55-6.38l8.55,4.68-.05-7.42-1.03-222.62-9.07-4.64c-1.18,2.68-1.82,5.52-1.82,8.05v214.99c0,3.51,1.23,6.09,3.3,6.9l.13.06h0Z"/>
          </g>
          <g>
            <path class="cls-19" d="m79.09,99.28l9.81,5.02,105.01-61.09,7.01-4.08-9.69-5.46-.28-.16h0c-1.54-.94-3.57-.88-5.8.41l-99.4,57.39c-2.68,1.54-5.07,4.52-6.67,7.97Z"/>
            <path class="cls-19" d="m88.9,104.8c-.08,0-.16-.02-.23-.05l-9.81-5.02c-.24-.12-.34-.41-.23-.66,1.71-3.67,4.21-6.66,6.88-8.19l99.4-57.39c2.3-1.33,4.54-1.48,6.3-.41.03.02.05.03.07.05l.2.12,9.68,5.45c.16.09.25.25.25.43s-.09.35-.25.44l-112.02,65.17c-.08.05-.16.07-.25.07Zm-9.15-5.74l9.13,4.67,111.03-64.59-9.21-5.2s-.05-.03-.08-.05c-1.43-.82-3.28-.65-5.21.47l-99.4,57.39c-2.39,1.38-4.65,4.03-6.26,7.32Z"/>
          </g>
          <path class="cls-11" d="m86.64,113.42v214.02c0,3.37,1.07,5.8,2.79,6.93l.56.31c1.49.71,3.36.55,5.4-.62l48.05-27.74,51.35-30.91c4.83-2.79,8.76-9.03,8.76-15.46V45.94c0-3.26-1-5.62-2.62-6.81-.28-.2-.57-.38-.89-.5-1.46-.62-3.28-.44-5.25.69l-99.4,58.36c-2.58,1.48-4.89,3.34-6.48,6.62-1.41,2.87-2.27,6.11-2.27,9.13Z"/>
        </g>
        <g>
          <path class="cls-11" d="m194.78,275.41c-20.45,12.2-73.66,43.96-100,59.82-3.45,2.08-7.84-.41-7.84-4.44V110.73c0-5.09,2.7-9.81,7.1-12.38l101.22-59.32c3.45-2.02,7.79.47,7.79,4.46v217.36c0,5.97-3.14,11.5-8.27,14.56Z"/>
          <path class="cls-22" d="m194.53,274.98c-16.06,9.58-32.11,19.16-48.16,28.76-9.5,5.68-19,11.36-28.5,17.05-4.34,2.6-8.68,5.2-13.01,7.8-1.9,1.14-3.79,2.28-5.69,3.42-1.75,1.05-3.61,2.55-5.55,3.22-3.21,1.11-6.1-1.45-6.18-4.62-.01-.51,0-1.02,0-1.54V127.3c0-5.37-.01-10.75,0-16.12.01-5.29,2.57-9.87,7.14-12.58,2.32-1.37,4.65-2.73,6.98-4.09,10.9-6.39,21.8-12.78,32.7-19.16,12.92-7.57,25.83-15.14,38.75-22.71,7.35-4.31,14.68-8.65,22.05-12.92,2.28-1.32,5.15-1.19,6.74,1.19.64.97.76,2.05.76,3.16,0,1.92,0,3.84,0,5.75v210.17c0,6.15-2.69,11.69-8.02,14.97-.55.34-.05,1.2.5.86,5.56-3.42,8.52-9.25,8.52-15.7V59.42c0-5.23.06-10.45,0-15.68-.05-4.75-4.84-7.28-8.88-4.96-2.44,1.41-4.85,2.84-7.28,4.27-11.2,6.56-22.4,13.13-33.6,19.69-13.03,7.64-26.06,15.28-39.1,22.91-6.91,4.05-13.85,8.07-20.74,12.16-4.79,2.84-7.49,7.77-7.51,13.31,0,1.8,0,3.6,0,5.4v213.23c0,.34-.01.69,0,1.03.12,3.77,3.74,6.65,7.45,5.41,1.89-.63,3.67-2.05,5.37-3.07,1.93-1.16,3.87-2.32,5.8-3.49,4.32-2.6,8.65-5.19,12.97-7.78,18.91-11.33,37.84-22.64,56.76-33.94,6.74-4.03,13.49-8.05,20.23-12.07.55-.33.05-1.19-.5-.86Z"/>
        </g>
        <path class="cls-22" d="m94.04,98.34l101.22-59.32c3.45-2.02,7.79.47,7.79,4.46v9.55h-.03s-116.08,67.02-116.08,67.02v-9.32c0-5.09,2.7-9.81,7.1-12.38Z"/>
      </g>
      <g>
        <ellipse class="cls-23" cx="145" cy="139.64" rx="37.17" ry="21.46" transform="translate(-48.43 195.39) rotate(-60)"/>
        <ellipse class="cls-10" cx="145" cy="139.64" rx="37.17" ry="21.46" transform="translate(-48.43 195.39) rotate(-60)"/>
        <g>
          <path class="cls-6" d="m140.28,139.75c-.65,0-1.18-.53-1.18-1.18v-7.77c0-3.43,2.33-7.47,5.3-9.19,1.64-.95,3.24-1.06,4.51-.33,1.27.73,1.97,2.18,1.97,4.07v7.77c0,.65-.53,1.18-1.18,1.18s-1.18-.53-1.18-1.18v-7.77c0-1-.29-1.74-.79-2.03-.5-.29-1.29-.17-2.15.33-2.24,1.29-4.13,4.56-4.13,7.15v7.77c0,.65-.53,1.18-1.18,1.18Z"/>
          <path class="cls-6" d="m154.52,128.12c-.46-.22-1.04-.18-1.67.19l-15.72,9.08c-.63.36-1.21.99-1.67,1.74-.62,1.01-1.02,2.25-1.02,3.39v13.61c0,.99.3,1.71.78,2.07.09.07.18.12.27.16h0c.45.2,1.01.15,1.63-.2l15.72-9.08c1.48-.86,2.68-3.15,2.68-5.13v-13.61c0-1.14-.4-1.92-1.02-2.21Z"/>
          <g>
            <path class="cls-6" d="m146.78,142.3l1.52,4.36-5.33,3.08,1.33-5.38.19-.76c-.9.03-1.52-.67-1.52-1.89,0-.47.09-.96.25-1.45.43-1.29,1.35-2.55,2.41-3.16,1.47-.85,2.66-.16,2.66,1.54,0,1.23-.63,2.64-1.52,3.66v.03Z"/>
            <path class="cls-6" d="m144.3,144.35l.19-.76c-.9.03-1.52-.67-1.52-1.89,0-.47.09-.96.25-1.45l3.56,2.06,1.52,4.36-3.99-2.31Z"/>
          </g>
        </g>
      </g>
      <g>
        <path class="cls-6" d="m183.77,189.97l-77.55,44.77c-3.21,1.85-5.81-.11-5.81-4.39v-11.75c0-4.28,2.6-9.25,5.81-11.1l77.55-44.77c3.21-1.85,5.81.11,5.81,4.39v11.75c0,4.28-2.6,9.25-5.81,11.1Z"/>
        <g>
          <g>
            <rect class="cls-11" x="118.68" y="206.44" width="1.5" height="12.43"/>
            <rect class="cls-11" x="113.21" y="211.91" width="12.43" height="1.5" transform="translate(-90.34 88.22) rotate(-30)"/>
            <rect class="cls-11" x="118.68" y="208.26" width="1.5" height="8.79" transform="translate(-124.46 209.76) rotate(-60)"/>
            <rect class="cls-11" x="111.81" y="211.91" width="15.23" height="1.5" transform="translate(-124.46 209.74) rotate(-60)"/>
          </g>
          <g>
            <rect class="cls-11" x="144.25" y="192.52" width="1.5" height="12.43"/>
            <rect class="cls-11" x="138.78" y="197.98" width="12.43" height="1.5" transform="translate(-79.95 99.14) rotate(-30)"/>
            <rect class="cls-11" x="144.25" y="194.34" width="1.5" height="8.79" transform="translate(-99.61 224.94) rotate(-60)"/>
            <rect class="cls-11" x="137.38" y="197.98" width="15.23" height="1.5" transform="translate(-99.61 224.92) rotate(-60)"/>
          </g>
          <g>
            <rect class="cls-11" x="169.81" y="178.59" width="1.5" height="12.43"/>
            <rect class="cls-11" x="164.35" y="184.06" width="12.43" height="1.5" transform="translate(-69.56 110.05) rotate(-30)"/>
            <rect class="cls-11" x="169.82" y="180.41" width="1.5" height="8.79" transform="translate(-74.76 240.12) rotate(-60)"/>
            <rect class="cls-11" x="162.95" y="184.06" width="15.23" height="1.5" transform="translate(-74.77 240.11) rotate(-60)"/>
          </g>
        </g>
      </g>
      <g>
        <path class="cls-6" d="m186.08,206.15c1.04,0,1.5,1.55,1.5,3.09v11.75c0,3.57-2.2,7.86-4.81,9.37l-77.55,44.77c-.49.28-.94.43-1.31.43-1.04,0-1.5-1.55-1.5-3.09v-11.75c0-3.57,2.2-7.86,4.81-9.37l77.55-44.77c.49-.28.94-.43,1.31-.43m0-2c-.71,0-1.49.22-2.31.7l-77.55,44.77c-3.21,1.85-5.81,6.82-5.81,11.1v11.75c0,3.19,1.44,5.09,3.5,5.09.71,0,1.49-.22,2.31-.7l77.55-44.77c3.21-1.85,5.81-6.82,5.81-11.1v-11.75c0-3.19-1.44-5.09-3.5-5.09h0Z"/>
        <text class="cls-7" transform="translate(127.26 254.62) rotate(-30) scale(1.02 .86) skewX(-26.56)"><tspan class="cls-27" x="0" y="0">E</tspan><tspan class="cls-26" x="8.08" y="0">n</tspan><tspan class="cls-12" x="16.85" y="0">t</tspan><tspan class="cls-24" x="22.98" y="0">er</tspan></text>
      </g>
    </g>
  </g>
  <g id="Icons">
    <g>
      <path class="cls-17" d="m300.21,72.62c0,1.45,1.03,3.2,2.31,3.93,1.28.72,2.31.14,2.31-1.31s-1.03-3.2-2.31-3.93c-1.28-.72-2.31-.14-2.31,1.31Z"/>
      <path class="cls-17" d="m269.24,81.94c-1.77,0-3.73-.58-5.75-1.72l-7.33-4.15c-.24-.14-.33-.44-.19-.68.14-.24.44-.32.68-.19l7.33,4.15c3.16,1.79,6.1,2.08,8.27.81,2.12-1.24,3.3-3.85,3.3-7.36,0-3.88,1.35-6.79,3.79-8.22,2.49-1.45,5.78-1.17,9.27.81l11.85,6.71c.24.14.33.44.19.68-.14.24-.44.32-.68.19l-11.85-6.71c-3.16-1.79-6.1-2.08-8.27-.81-2.13,1.24-3.3,3.85-3.3,7.36,0,3.88-1.35,6.79-3.79,8.22-1.05.61-2.24.91-3.52.91Z"/>
      <path class="cls-17" d="m253.14,73.82c0,1.17.84,2.59,1.87,3.18,1.03.58,1.87.11,1.87-1.06s-.84-2.59-1.87-3.18c-1.03-.58-1.87-.11-1.87,1.06Z"/>
    </g>
    <g>
      <path class="cls-17" d="m300.21,160.03c0,1.45,1.03,3.2,2.31,3.93,1.28.72,2.31.14,2.31-1.31s-1.03-3.2-2.31-3.93c-1.28-.72-2.31-.14-2.31,1.31Z"/>
      <path class="cls-17" d="m300.3,161.12c-.08,0-.17-.02-.25-.06l-11.85-6.71c-6.93-3.93-12.57-13.51-12.57-21.37s-5.41-16.73-12.06-20.5l-7.42-4.2c-.24-.14-.33-.44-.19-.68.14-.24.44-.32.68-.19l7.42,4.2c6.93,3.93,12.57,13.51,12.57,21.37s5.41,16.73,12.06,20.5l11.85,6.71c.24.14.33.44.19.68-.09.16-.26.25-.43.25Z"/>
      <path class="cls-17" d="m253.14,105.85c0,1.17.84,2.59,1.87,3.18,1.03.58,1.87.11,1.87-1.06s-.84-2.59-1.87-3.18c-1.03-.58-1.87-.11-1.87,1.06Z"/>
    </g>
    <g>
      <g>
        <path class="cls-6" d="m371.42,63.19l-48.98-27.74c-1.4-.81-2.66-.75-3.56,0l-4.23,2.93,2.89,3.57v51.63c0,3.61,2.2,7.81,4.9,9.37l47.76,27.04.22,3.85,4.46-3.06c.89-.67,1.44-1.99,1.44-3.79v-54.41c0-3.61-2.2-7.81-4.9-9.37Z"/>
        <path class="cls-8" d="m371.42,63.19l-48.98-27.74c-1.4-.81-2.66-.75-3.56,0l-4.23,2.93,2.89,3.57v51.63c0,3.61,2.2,7.81,4.9,9.37l47.76,27.04.22,3.85,4.46-3.06c.89-.67,1.44-1.99,1.44-3.79v-54.41c0-3.61-2.2-7.81-4.9-9.37Z"/>
        <path class="cls-6" d="m367.25,133.54l-48.98-27.74c-2.71-1.56-4.9-5.76-4.9-9.37v-54.41c0-3.61,2.2-5.27,4.9-3.71l48.98,27.74c2.71,1.56,4.9,5.76,4.9,9.37v54.41c0,3.61-2.2,5.27-4.9,3.71Z"/>
      </g>
      <g>
        <path class="cls-2" d="m355.65,85.9c-.22,0-.42-.15-.48-.37-1.02-3.81-2.68-7.59-4.8-10.92-.15-.23-.08-.54.15-.69.23-.15.54-.08.69.15,2.17,3.42,3.87,7.29,4.92,11.2.07.27-.09.54-.35.61-.04.01-.09.02-.13.02Z"/>
        <path class="cls-2" d="m356.78,96.06s-.02,0-.03,0c-.28-.02-.48-.26-.47-.53.04-.54.05-1.09.05-1.66,0-1.64-.15-3.36-.45-5.1-.05-.27.14-.53.41-.58.28-.04.53.14.58.41.31,1.8.46,3.57.46,5.27,0,.59-.02,1.17-.06,1.73-.02.26-.24.47-.5.47Z"/>
        <path class="cls-2" d="m326.19,79.47c-.26,0-.47-.2-.5-.46-.08-.87-.11-1.73-.11-2.57,0-4.85,1.31-8.86,3.68-11.28.19-.2.51-.2.71,0,.2.19.2.51,0,.71-2.19,2.24-3.4,6-3.4,10.58,0,.81.04,1.64.11,2.48.02.27-.18.52-.45.54-.02,0-.03,0-.04,0Z"/>
        <path class="cls-2" d="m348.3,71.38c-.14,0-.29-.06-.39-.18-2.1-2.57-4.36-4.55-6.71-5.88-3.32-1.88-6.44-2.24-9.01-1.05-.25.12-.55,0-.66-.24-.12-.25,0-.55.24-.66,2.88-1.34,6.31-.96,9.92,1.09,2.46,1.39,4.81,3.45,6.99,6.12.17.21.14.53-.07.7-.09.08-.21.11-.32.11Z"/>
        <path class="cls-2" d="m329.64,79.85c-.27,0-.49-.21-.5-.48-.01-.31-.02-.62-.02-.93,0-3.55.87-6.45,2.52-8.38.18-.21.5-.24.71-.06.21.18.24.49.06.7-1.49,1.75-2.28,4.42-2.28,7.73,0,.29,0,.59.02.88.01.28-.2.51-.48.52,0,0-.01,0-.02,0Z"/>
        <path class="cls-2" d="m333.56,69.55c-.17,0-.33-.08-.43-.24-.14-.24-.07-.54.16-.69,1.25-.77,2.69-1.08,4.25-.93.28.03.48.27.45.55-.03.27-.28.47-.55.45-1.35-.13-2.56.13-3.62.78-.08.05-.17.07-.26.07Z"/>
        <path class="cls-2" d="m355.65,102.5c-.2,0-.38-.12-.46-.31l-.59-1.45c-1.19-2.95-1.82-6-1.81-8.84,0-8.48-5.2-18.29-11.58-21.91-.24-.14-.33-.44-.19-.68.14-.24.44-.32.68-.19,6.67,3.78,12.09,13.98,12.09,22.75,0,2.74.6,5.67,1.74,8.5l.59,1.45c.1.26-.02.55-.28.65-.06.02-.12.04-.19.04Z"/>
        <path class="cls-2" d="m332.69,96.75c-.2,0-.4-.13-.47-.33-2.52-6.88-3.1-14.53-3.11-14.61-.02-.28.19-.51.46-.53.24-.02.51.19.54.46,0,.07.58,7.59,3.05,14.34.09.26-.04.55-.3.64-.06.02-.11.03-.17.03Z"/>
        <path class="cls-2" d="m352.71,105.87c-.2,0-.39-.12-.47-.33l-1.33-3.59c-1.41-3.79-2.15-7.59-2.15-10.99v-3.93c0-4.67-3.35-10.36-7.47-12.69-1.92-1.09-3.7-1.27-5-.51-1.27.74-1.98,2.32-1.98,4.45v3.47c0,5.09,1.16,10.8,3.34,16.49l1.65,4.3c.1.26-.03.55-.29.65-.26.1-.55-.03-.65-.29l-1.65-4.3c-2.23-5.81-3.41-11.64-3.41-16.85v-3.47c0-2.5.88-4.39,2.47-5.32,1.62-.95,3.75-.77,6,.51,4.4,2.49,7.98,8.58,7.98,13.56v3.93c0,3.28.72,6.96,2.09,10.65l1.33,3.59c.1.26-.04.55-.3.64-.06.02-.12.03-.17.03Z"/>
        <path class="cls-2" d="m348.3,107.3c-.22,0-.42-.14-.48-.36l-.7-2.35c-1.32-4.47-2-8.77-2-12.78v-6.08c0-2.51-1.8-5.57-4.02-6.82-.99-.56-1.89-.66-2.54-.28-.63.37-.98,1.17-.98,2.27,0,6.75,2.06,14.54,5.79,21.94l1.41,2.78c.12.25.03.55-.22.67-.25.12-.55.02-.67-.22l-1.41-2.78c-3.8-7.53-5.9-15.48-5.9-22.39,0-1.46.52-2.58,1.48-3.13.97-.56,2.23-.47,3.54.28,2.49,1.41,4.52,4.86,4.52,7.69v6.08c0,3.92.66,8.12,1.95,12.5l.7,2.35c.08.26-.07.54-.34.62-.05.01-.1.02-.14.02Z"/>
        <path class="cls-2" d="m342.7,96.75c-.23,0-.44-.16-.49-.4l-.46-2.14c-.44-2.05-.66-4.16-.66-6.26v-5.64c0-.28.22-.5.5-.5s.5.22.5.5v5.64c0,2.03.22,4.06.64,6.05l.46,2.14c.06.27-.11.54-.38.59-.04,0-.07.01-.11.01Z"/>
        <path class="cls-2" d="m327.27,85.9c-.25,0-.47-.19-.5-.45l-.29-2.92c-.03-.27.17-.52.45-.55.3-.02.52.17.55.45l.29,2.92c.03.27-.17.52-.45.55-.02,0-.03,0-.05,0Z"/>
      </g>
    </g>
    <g>
      <g>
        <path class="cls-6" d="m371.42,155.85l-48.98-27.74c-1.4-.81-2.66-.75-3.56,0l-4.23,2.93,2.89,3.57v51.63c0,3.61,2.2,7.81,4.9,9.37l47.76,27.04.22,3.85,4.46-3.06c.89-.67,1.44-1.99,1.44-3.79v-54.41c0-3.61-2.2-7.81-4.9-9.37Z"/>
        <path class="cls-8" d="m371.42,155.85l-48.98-27.74c-1.4-.81-2.66-.75-3.56,0l-4.23,2.93,2.89,3.57v51.63c0,3.61,2.2,7.81,4.9,9.37l47.76,27.04.22,3.85,4.46-3.06c.89-.67,1.44-1.99,1.44-3.79v-54.41c0-3.61-2.2-7.81-4.9-9.37Z"/>
        <path class="cls-6" d="m367.25,226.2l-48.98-27.74c-2.71-1.56-4.9-5.76-4.9-9.37v-54.41c0-3.61,2.2-5.27,4.9-3.71l48.98,27.74c2.71,1.56,4.9,5.76,4.9,9.37v54.41c0,3.61-2.2,5.27-4.9,3.71Z"/>
      </g>
      <g>
        <path class="cls-2" d="m324.27,149.86c-.28,0-.5-.22-.5-.5v-3.37c0-.68.35-1.3.95-1.64.61-.35,1.34-.36,1.95-.01l3.54,2c.24.14.33.44.19.68-.14.24-.44.32-.68.19l-3.54-2c-.3-.17-.65-.17-.95,0-.29.17-.45.45-.45.78v3.37c0,.28-.22.5-.5.5Z"/>
        <path class="cls-2" d="m329.96,196.24c-.08,0-.17-.02-.25-.06l-3.3-1.87c-1.63-.92-2.64-2.64-2.64-4.49v-3.11c0-.28.22-.5.5-.5s.5.22.5.5v3.11c0,1.49.82,2.87,2.13,3.62l3.3,1.87c.24.14.33.44.19.68-.09.16-.26.25-.43.25Z"/>
        <path class="cls-2" d="m359.82,212.94c-.33,0-.66-.09-.96-.26l-3.54-2c-.24-.14-.33-.44-.19-.68.14-.24.44-.32.68-.19l3.54,2c.3.17.66.17.95,0,.29-.17.45-.45.45-.78v-3.37c0-.28.22-.5.5-.5s.5.22.5.5v3.37c0,.68-.35,1.29-.95,1.64-.31.18-.65.27-.98.27Z"/>
        <path class="cls-2" d="m361.25,170.81c-.28,0-.5-.22-.5-.5v-3.11c0-1.49-.82-2.87-2.13-3.62l-3.3-1.87c-.24-.14-.33-.44-.19-.68.14-.24.44-.32.68-.19l3.3,1.87c1.63.92,2.64,2.64,2.64,4.49v3.11c0,.28-.22.5-.5.5Z"/>
      </g>
      <path class="cls-2" d="m328.71,166.68c.07,5.91,1.03,11.6,2.41,16.8,3.81,14.33,18.79,23.15,22.91,13.44,1.64-3.87,2.79-8.81,2.79-15.05,0-8.8-6.3-19.5-14.06-23.9-7.92-4.48-14.17-.32-14.05,8.71Z"/>
      <polygon class="cls-6" points="342.26 174.69 342.26 184.11 338.17 181.05 342.26 174.69"/>
      <g>
        <path class="cls-6" d="m334.65,169.06c0,.84.6,1.87,1.35,2.29.74.42,1.35.08,1.35-.76s-.6-1.87-1.35-2.29c-.74-.42-1.35-.08-1.35.76Z"/>
        <path class="cls-6" d="m347.18,176.24c0,.84.6,1.87,1.35,2.29.74.42,1.35.08,1.35-.76s-.6-1.87-1.35-2.29c-.74-.42-1.35-.08-1.35.76Z"/>
      </g>
      <path class="cls-6" d="m340.91,188.72l4.57-.78s-.97,4.88-4.57.78Z"/>
    </g>
  </g>
  <g id="Character">
    <g>
      <path class="cls-29" d="m267.2,197.51s7.29-.49,11.42,9.64c2.57,6.3,5.7,16.03,7.7,22.49,1.24,4.02-.04,8.38-3.26,11.08l-12.71,10.66-4.55-8.27s4.9-6.54,8.68-9.92l-8.68-26.05,1.39-9.64Z"/>
      <path class="cls-25" d="m270.56,228.45s11.58,1.53,14.47-7.4c0,0-4.96-13.07-7.24-17.41-2.27-4.34-6.93-7.49-10.6-6.12-3.67,1.37,3.36,30.93,3.36,30.93Z"/>
      <path class="cls-15" d="m270.56,228.45s11.58,1.53,14.47-7.4c0,0-4.96-13.07-7.24-17.41-2.27-4.34-6.93-7.49-10.6-6.12-3.67,1.37,3.36,30.93,3.36,30.93Z"/>
      <path class="cls-13" d="m262.84,345.71s-5.5-4.71-7.64-4.93c-2.14-.22-5.84,3.44-2.71,9.8.87,1.77,4.41,3.68,6.62,7.07,2.21,3.39,4.2,5.93,7.59,5.47,3.39-.46,3.83-2.38,3.61-4.59-.22-2.21-1.22-6-1.22-6l-6.24-6.81Z"/>
      <path class="cls-28" d="m266.87,362.1c-3.49.48-5.54-2.15-7.82-5.64-2.28-3.49-5.92-5.47-6.82-7.29-.39-.8-.68-1.56-.88-2.28.13,1.1.47,2.32,1.14,3.68.87,1.77,4.41,3.68,6.62,7.07,2.21,3.39,4.2,5.93,7.59,5.47,2.6-.35,3.46-1.56,3.62-3.1-.45,1.04-1.43,1.81-3.44,2.09Z"/>
      <path class="cls-22" d="m259.9,351.77c-.08,0-.17-.02-.25-.06-.26-.14-.36-.46-.22-.72.07-.13,1.79-3.29,5.18-4.06.29-.07.57.12.64.4.07.29-.12.57-.4.64-2.9.66-4.45,3.49-4.47,3.52-.1.18-.28.28-.47.28Z"/>
      <path class="cls-22" d="m257.84,349.87c-.09,0-.17-.02-.25-.06-.26-.14-.36-.46-.22-.72.07-.13,1.79-3.29,5.18-4.06.29-.07.57.12.64.4s-.12.57-.4.64c-2.9.66-4.45,3.49-4.47,3.52-.1.18-.28.28-.47.28Z"/>
      <path class="cls-22" d="m255.5,347.98c-.08,0-.17-.02-.25-.06-.26-.14-.36-.46-.22-.72.07-.13,1.79-3.29,5.17-4.06.29-.07.57.12.64.4s-.12.57-.4.64c-2.9.66-4.45,3.49-4.47,3.52-.1.18-.28.28-.47.28Z"/>
      <path class="cls-13" d="m233.55,361.16s-7.37-2.39-9.57-1.73c-2.2.66-4.35,5.8,1.35,10.79,1.59,1.39,5.86,1.83,9.44,4.26,3.57,2.44,6.59,4.13,9.74,2.28,3.16-1.85,2.9-3.98,2.34-6.29-.72-2.94-1.29-5.08-1.29-5.08l-12-4.24Z"/>
      <path class="cls-28" d="m244.27,375.69c-3.25,1.91-6.36.16-10.04-2.36-3.68-2.51-8.09-2.96-9.73-4.39-.72-.63-1.31-1.26-1.8-1.89.58,1.03,1.42,2.1,2.63,3.16,1.59,1.39,5.86,1.83,9.44,4.26,3.57,2.44,6.59,4.13,9.74,2.28,2.42-1.42,2.77-2.96,2.3-4.55-.02,1.21-.67,2.38-2.54,3.48Z"/>
      <path class="cls-22" d="m231.8,367.97s-.04,0-.05,0c-.29-.03-.51-.29-.48-.58.02-.16.41-3.96,3.43-6.11.24-.17.57-.11.75.13.17.24.11.57-.13.75-2.61,1.85-2.98,5.3-2.98,5.34-.03.28-.26.48-.53.48Z"/>
      <path class="cls-22" d="m234.84,368.97s-.04,0-.05,0c-.29-.03-.51-.29-.48-.58.02-.16.41-3.96,3.43-6.11.24-.17.57-.12.75.13.17.24.11.57-.13.75-2.61,1.85-2.98,5.3-2.98,5.34-.03.28-.26.48-.53.48Z"/>
      <path class="cls-22" d="m228.99,366.94s-.04,0-.05,0c-.29-.03-.51-.29-.48-.58.02-.16.41-3.96,3.43-6.11.24-.17.57-.11.75.13.17.24.11.57-.13.75-2.61,1.85-2.98,5.3-2.98,5.34-.03.28-.26.48-.53.48Z"/>
      <g>
        <path class="cls-17" d="m269.42,347.12c.66-7.3,2.09-18.74,2.69-24.09,1.06-9.56.09-16.85-.58-20.31-.3-1.59-.39-3.19-.23-4.8,1.45-14.54,2.39-38.11,1.59-43.29l-20.41,4.32s2.5,33.07,3.59,44.06c1.1,11.07,5.21,44.2,5.21,44.2,1.71,1,4.81,2.1,8.14-.1Z"/>
        <path class="cls-29" d="m266.48,354.62c1.77-.28,2.6-2.1,2.6-2.1,0-1.15.13-3.07.34-5.41-3.33,2.2-6.43,1.1-8.14.1l.72,6.14c.83.94,2.71,1.55,4.47,1.27Z"/>
      </g>
      <path class="cls-17" d="m246.46,359.95c.83-11.05,2.44-32.47,2.66-35.83.22-3.39-.16-8.07-.7-11.11-.35-1.98-.32-4.01.03-5.99l8.97-49.77-24.67-.36-1.61,52.14c-.02.67,0,1.35.08,2.02l5.23,48.6h0s5.1,4.28,10.02.31Z"/>
      <path class="cls-29" d="m242.35,369.07c1.77-.17,3.37-1.66,3.62-2.54,0,0,.2-2.64.5-6.59-4.91,3.97-10.02-.31-10.02-.31h0s.78,7.29.78,7.29c0,0,1.16,2.52,5.12,2.15Z"/>
      <path class="cls-25" d="m244.15,200.83l-5.82,1.99-6.26,29.61.3,26.26s4.47,3.56,21.93,3.56c9.8,0,16.18-3.69,18.59-7.62l-1.57-15.86s1.57-15.63,1.57-23.36.34-14.06-5.69-17.89l-5.38.44-17.68,2.87Z"/>
      <path class="cls-21" d="m244.15,200.83l-5.82,1.99-6.26,29.61.3,26.26s4.47,3.56,21.93,3.56c9.8,0,16.18-3.69,18.59-7.62l-1.57-15.86s1.57-15.63,1.57-23.36.34-14.06-5.69-17.89l-5.38.44-17.68,2.87Z"/>
      <path class="cls-18" d="m237.83,175.38l-2.91,5.77c-.18.36,0,.79.38.92l3.46,1.15-.92-7.83Z"/>
      <path class="cls-29" d="m241.86,165.71s-4.42,2.38-4.42,16.04c0,7.51.52,12.3,4.42,12.01,3.9-.29,15.14-1.77,15.14-1.77v-26.28h-15.14Z"/>
      <path class="cls-18" d="m241.86,193.76c1.37-.1,3.65-.35,6.03-.63v-1.39c-2.19,1.12-6.09,1.91-6.68,2.02.21.02.42.02.65,0Z"/>
      <polygon class="cls-29" points="247.22 191.15 247.22 199.72 258.95 199.72 258.95 187.68 247.22 191.15"/>
      <path class="cls-25" d="m247.22,196.46s4.22,1.5,7.61.91,4.12-2.65,4.12-2.65c0,0,1.1-.08,2.87,3.24,0,0-2.07,4.14-6.85,4.42-6.26.37-10.83-1.55-10.83-1.55,0,0,1.63-4.8,3.08-4.37Z"/>
      <path class="cls-3" d="m247.22,196.46s4.22,1.5,7.61.91,4.12-2.65,4.12-2.65c0,0,1.1-.08,2.87,3.24,0,0-2.07,4.14-6.85,4.42-6.26.37-10.83-1.55-10.83-1.55,0,0,1.63-4.8,3.08-4.37Z"/>
      <path class="cls-29" d="m221.05,221.9l-3.15,4.85s-7.65-3.41-13.02-5.48-8.58-4.94-8.58-4.94c0,0,.41-4.1,1.03-6.2.62-2.09.83-3.85-1.03-2.92-1.86.93-3.1,4.55-3.2,4.96,0,0-10.75-10.8-12.09-10.57-1.34.23-1.03,1.86,1.86,5.19l2.89,3.33s-6.59,3.8-5.52,7.93,9.76,6,9.76,6c0,0,25.42,19.54,31.06,16.02,5.64-3.51,13.6-13.65,13.6-13.65l-13.6-4.54Z"/>
      <path class="cls-25" d="m240.63,202.06s4.69,3.86,1.63,11.84c-3.06,7.98-10.86,17.62-10.86,17.62,0,0-8.19-2.54-11.34-9.16l10.32-16.15c1.49-2.33,3.99-3.82,6.76-4,.97-.06,2.13-.12,3.5-.15Z"/>
      <path class="cls-14" d="m240.63,202.06s4.69,3.86,1.63,11.84c-3.06,7.98-10.86,17.62-10.86,17.62,0,0-8.19-2.54-11.34-9.16l10.32-16.15c1.49-2.33,3.99-3.82,6.76-4,.97-.06,2.13-.12,3.5-.15Z"/>
      <path class="cls-28" d="m240.17,157.67s-4.64-.62-5.82,2.58c-.74,1.99,1.62,3.54,1.62,3.54,0,0-2.99,2.81,1.47,3.68,0,0-.37,3.83,3.61,3.31,0,0-.52,3.04,3.39,4.1,0,0-1.97,5.26,1.74,5.33h3.48l-1.4,4.05s2.6,6.26,10.7,6.26c0,0,2.06-4.27,3.02-5.52.96-1.25,5.97-7.66,5.97-12.74s-1.96-8.09-4.66-8.76c0,0-1.16-2.8-3.88-4.64s-8.47-3.48-11.71-1.23c0,0-2.87-3.77-4.86-3.77s-2.65,2.05-2.65,3.82Z"/>
      <path class="cls-29" d="m246.18,180.21s-.34-5.33,4.15-5.33,3.43,9.38-2.08,9.38l-2.07-4.05Z"/>
    </g>
  </g>
</svg>